<?xml version="1.0" encoding="UTF-8"?>
<svg xmlns="http://www.w3.org/2000/svg" width="706.5mm" height="452.1mm" viewBox="0 0 706.5 452.1">
  <title>FORMA Laser Cut Layout</title>
  <desc>Generated by FORMA — 6 pieces</desc>
  <path d="M 11.475 3.400 C 11.475 24.664, 51.425 60.350, -8.925 58.650 C -69.275 56.950, -2.125 40.800, -9.775 9.350 C -17.425 -22.100, -23.375 -47.600, -34.425 -73.950 C -45.475 -100.300, 20.825 -114.750, 10.625 -81.600 C 0.425 -48.450, 11.475 -17.864, 11.475 3.400 Z" transform="translate(102.937, 142.482)" fill="none" stroke="#e06050" stroke-width="0.2" />
  <path d="M 77.500 18.000 C 77.500 43.016, 34.292 31.270, 10.500 39.000 C -13.292 46.730, -41.500 97.000, -74.500 64.000 C -107.500 31.000, -46.500 28.000, -34.500 -26.000 C -22.500 -80.000, -3.292 -43.730, 20.500 -36.000 C 44.292 -28.270, 77.500 -7.016, 77.500 18.000 Z" transform="translate(330.676, 111.410)" fill="none" stroke="#5a9fd4" stroke-width="0.2" />
  <path d="M 42.087 81.400 C 42.087 104.540, 94.550 189.300, -3.500 193.000 C -101.550 196.700, -28.212 126.725, -20.813 77.700 C -13.412 28.675, -68.639 15.946, -55.038 -2.775 C -41.436 -21.496, 18.230 -34.901, 40.237 -27.750 C 62.245 -20.599, 42.087 58.260, 42.087 81.400 Z" transform="translate(583.816, 39.705)" fill="none" stroke="#5a9fd4" stroke-width="0.2" />
  <path d="M 32.000 0.000 C 32.500 45.000, 93.500 80.000, 16.500 96.000 C -60.500 112.000, -29.796 47.238, -44.500 27.000 C -59.204 6.762, -94.500 -9.000, -107.500 -27.000 C -120.500 -45.000, -127.292 -99.730, -103.500 -92.000 C -79.708 -84.270, 31.500 -45.000, 32.000 0.000 Z" transform="translate(129.308, 339.580)" fill="none" stroke="#6abf8a" stroke-width="0.2" />
  <path d="M 206.500 -53.000 C 213.500 -13.000, 79.500 30.000, 33.500 36.000 C -12.500 42.000, -11.184 39.048, -25.889 18.809 C -40.593 -1.429, -69.204 -50.762, -54.500 -71.000 C -39.796 -91.238, 20.708 -37.730, 44.500 -30.000 C 68.292 -22.270, 199.500 -93.000, 206.500 -53.000 Z" transform="translate(253.262, 360.841)" fill="none" stroke="#e0e0e0" stroke-width="0.2" />
  <path d="M 87.500 -19.000 C 148.500 10.000, 25.292 34.270, 1.500 42.000 C -22.292 49.730, -76.796 45.238, -91.500 25.000 C -106.204 4.762, -142.500 -51.000, -107.500 -39.000 C -72.500 -27.000, -57.500 -8.000, -18.500 -9.000 C 20.500 -10.000, 26.500 -48.000, 87.500 -19.000 Z" transform="translate(592.271, 340.004)" fill="none" stroke="#f0d040" stroke-width="0.2" />
  <circle cx="79.14" cy="47.77" r="0.5" fill="#e06050" opacity="0.85" />
  <line x1="79.14" y1="44.57" x2="79.14" y2="49.27" stroke="#e06050" stroke-width="0.15" stroke-dasharray="0.4,0.3" />
  <circle cx="102.79" cy="43.26" r="0.5" fill="#e06050" opacity="0.85" />
  <line x1="102.79" y1="40.06" x2="102.79" y2="44.76" stroke="#e06050" stroke-width="0.15" stroke-dasharray="0.4,0.3" />
  <circle cx="314.92" cy="57.57" r="0.5" fill="#5a9fd4" opacity="0.85" />
  <line x1="314.92" y1="54.37" x2="314.92" y2="59.07" stroke="#5a9fd4" stroke-width="0.15" stroke-dasharray="0.4,0.3" />
  <circle cx="350.10" cy="76.22" r="0.5" fill="#5a9fd4" opacity="0.85" />
  <line x1="350.10" y1="73.02" x2="350.10" y2="77.72" stroke="#5a9fd4" stroke-width="0.15" stroke-dasharray="0.4,0.3" />
  <circle cx="553.57" cy="22.17" r="0.5" fill="#5a9fd4" opacity="0.85" />
  <line x1="553.57" y1="18.97" x2="553.57" y2="23.67" stroke="#5a9fd4" stroke-width="0.15" stroke-dasharray="0.4,0.3" />
  <circle cx="607.41" cy="11.21" r="0.5" fill="#5a9fd4" opacity="0.85" />
  <line x1="607.41" y1="8.01" x2="607.41" y2="12.71" stroke="#5a9fd4" stroke-width="0.15" stroke-dasharray="0.4,0.3" />
  <circle cx="34.51" cy="251.72" r="0.5" fill="#6abf8a" opacity="0.85" />
  <line x1="34.51" y1="248.52" x2="34.51" y2="253.22" stroke="#6abf8a" stroke-width="0.15" stroke-dasharray="0.4,0.3" />
  <circle cx="83.53" cy="271.50" r="0.5" fill="#6abf8a" opacity="0.85" />
  <line x1="83.53" y1="268.30" x2="83.53" y2="273.00" stroke="#6abf8a" stroke-width="0.15" stroke-dasharray="0.4,0.3" />
  <circle cx="260.95" cy="311.03" r="0.5" fill="#e0e0e0" opacity="0.85" />
  <line x1="260.95" y1="307.83" x2="260.95" y2="312.53" stroke="#e0e0e0" stroke-width="0.15" stroke-dasharray="0.4,0.3" />
  <circle cx="393.49" cy="305.82" r="0.5" fill="#e0e0e0" opacity="0.85" />
  <line x1="393.49" y1="302.62" x2="393.49" y2="307.32" stroke="#e0e0e0" stroke-width="0.15" stroke-dasharray="0.4,0.3" />
  <circle cx="519.75" cy="318.11" r="0.5" fill="#f0d040" opacity="0.85" />
  <line x1="519.75" y1="314.91" x2="519.75" y2="319.61" stroke="#f0d040" stroke-width="0.15" stroke-dasharray="0.4,0.3" />
  <circle cx="619.22" cy="315.67" r="0.5" fill="#f0d040" opacity="0.85" />
  <line x1="619.22" y1="312.47" x2="619.22" y2="317.17" stroke="#f0d040" stroke-width="0.15" stroke-dasharray="0.4,0.3" />
  <text x="97.3" y="122.4" text-anchor="middle" dominant-baseline="middle" font-family="monospace" font-size="3.5" font-weight="bold" fill="#e06050">P02</text>
  <text x="97.3" y="205.2" text-anchor="middle" font-family="monospace" font-size="2.5" fill="#e06050">60.1×159.5mm | L:226mm R:222mm</text>
  <text x="327.3" y="122.4" text-anchor="middle" dominant-baseline="middle" font-family="monospace" font-size="3.5" font-weight="bold" fill="#5a9fd4">P03</text>
  <text x="327.3" y="190.5" text-anchor="middle" font-family="monospace" font-size="2.5" fill="#5a9fd4">161.7×130.2mm | L:30mm R:49mm</text>
  <text x="583.3" y="122.4" text-anchor="middle" dominant-baseline="middle" font-family="monospace" font-size="3.5" font-weight="bold" fill="#5a9fd4">P03</text>
  <text x="583.3" y="236.8" text-anchor="middle" font-family="monospace" font-size="2.5" fill="#5a9fd4">113.2×222.8mm | L:190mm R:179mm</text>
  <text x="97.3" y="343.4" text-anchor="middle" dominant-baseline="middle" font-family="monospace" font-size="3.5" font-weight="bold" fill="#6abf8a">P04</text>
  <text x="97.3" y="442.1" text-anchor="middle" font-family="monospace" font-size="2.5" fill="#6abf8a">174.7×191.2mm | L:56mm R:76mm</text>
  <text x="327.3" y="343.4" text-anchor="middle" dominant-baseline="middle" font-family="monospace" font-size="3.5" font-weight="bold" fill="#e0e0e0">P05</text>
  <text x="327.3" y="403.6" text-anchor="middle" font-family="monospace" font-size="2.5" fill="#e0e0e0">265.3×114.3mm | L:158mm R:153mm</text>
  <text x="583.3" y="343.4" text-anchor="middle" dominant-baseline="middle" font-family="monospace" font-size="3.5" font-weight="bold" fill="#f0d040">P06</text>
  <text x="583.3" y="389.6" text-anchor="middle" font-family="monospace" font-size="2.5" fill="#f0d040">226.5×86.2mm | L:132mm R:129mm</text>
</svg>