<?xml version="1.0" encoding="UTF-8"?>
<svg xmlns="http://www.w3.org/2000/svg" width="849.8mm" height="664.1mm" viewBox="0 0 849.8 664.1">
  <title>FORMA Laser Cut Layout</title>
  <desc>Generated by FORMA — 8 pieces</desc>
  <path d="M 116.500 36.000 C 161.500 50.000, 287.500 57.000, 251.500 85.000 C 215.500 113.000, 32.500 45.000, -2.500 10.000 C -37.500 -25.000, -16.204 -8.762, -1.500 -29.000 C 13.204 -49.238, 52.500 -95.000, 46.500 -59.000 C 40.500 -23.000, 71.500 22.000, 116.500 36.000 Z" transform="translate(31.500, 111.876)" fill="none" stroke="#e06050" stroke-width="0.2" />
  <path d="M 15.500 -6.000 C 15.500 16.515, -3.087 29.043, -24.500 36.000 C -45.913 42.957, -198.716 67.715, -211.950 49.500 C -225.184 31.285, -36.533 1.286, -23.300 -16.928 C -10.066 -35.143, -25.913 -58.957, -4.500 -52.000 C 16.913 -45.043, 15.500 -28.515, 15.500 -6.000 Z" transform="translate(511.991, 120.081)" fill="none" stroke="#e06050" stroke-width="0.2" />
  <path d="M 252.500 -127.000 C 164.500 -119.000, 110.500 -72.000, 85.500 -45.000 C 60.500 -18.000, 43.500 76.000, -2.500 44.000 C -48.500 12.000, 3.796 -58.762, 18.500 -79.000 C 33.204 -99.238, 153.708 -179.730, 177.500 -172.000 C 201.292 -164.270, 340.500 -135.000, 252.500 -127.000 Z" transform="translate(558.520, 182.471)" fill="none" stroke="#5a9fd4" stroke-width="0.2" />
  <path d="M 41.500 35.000 C 55.500 61.000, 97.292 115.270, 73.500 123.000 C 49.708 130.730, -3.500 59.000, -57.500 37.000 C -111.500 15.000, -179.500 -69.000, -173.500 -97.000 C -167.500 -125.000, -32.292 -41.730, -8.500 -34.000 C 15.292 -26.270, 27.500 9.000, 41.500 35.000 Z" transform="translate(196.276, 349.667)" fill="none" stroke="#5a9fd4" stroke-width="0.2" />
  <path d="M 68.500 -19.000 C 68.500 6.016, 99.111 49.566, 56.500 42.000 C 13.889 34.434, -55.796 43.238, -70.500 23.000 C -85.204 2.762, -149.204 -5.762, -134.500 -26.000 C -119.796 -46.238, -49.500 -40.000, -31.500 -40.000 C -13.500 -40.000, 68.500 -44.016, 68.500 -19.000 Z" transform="translate(442.208, 359.132)" fill="none" stroke="#5a9fd4" stroke-width="0.2" />
  <path d="M -3.500 -5.000 C 29.500 41.000, 139.500 39.000, 73.500 70.000 C 7.500 101.000, -71.796 52.238, -86.500 32.000 C -101.204 11.762, -114.204 -22.762, -99.500 -43.000 C -84.796 -63.238, -51.500 -116.000, 29.500 -94.000 C 110.500 -72.000, -36.500 -51.000, -3.500 -5.000 Z" transform="translate(694.524, 369.707)" fill="none" stroke="#e0e0e0" stroke-width="0.2" />
  <path d="M 12.500 -24.000 C 14.500 36.000, -37.708 60.270, -61.500 68.000 C -85.292 75.730, -137.500 0.000, -94.500 9.000 C -51.500 18.000, -35.500 10.000, -42.500 -26.000 C -49.500 -62.000, -126.500 -91.000, -88.500 -94.000 C -50.500 -97.000, 10.500 -84.000, 12.500 -24.000 Z" transform="translate(198.894, 581.613)" fill="none" stroke="#e0e0e0" stroke-width="0.2" />
  <path d="M 50.400 0.000 C 50.400 39.400, 53.046 35.758, 15.574 47.933 C -21.898 60.109, -17.615 61.500, -40.774 29.624 C -63.933 -2.251, -63.933 2.251, -40.774 -29.624 C -17.615 -61.500, -21.898 -60.109, 15.574 -47.933 C 53.046 -35.758, 50.400 -39.400, 50.400 0.000 Z" transform="translate(417.297, 568.671)" fill="none" stroke="#f0d040" stroke-width="0.2" />
  <circle cx="48.47" cy="61.33" r="0.5" fill="#e06050" opacity="0.85" />
  <line x1="48.47" y1="58.13" x2="48.47" y2="62.83" stroke="#e06050" stroke-width="0.15" stroke-dasharray="0.4,0.3" />
  <circle cx="68.56" cy="42.88" r="0.5" fill="#e06050" opacity="0.85" />
  <line x1="68.56" y1="39.68" x2="68.56" y2="44.38" stroke="#e06050" stroke-width="0.15" stroke-dasharray="0.4,0.3" />
  <circle cx="502.39" cy="68.11" r="0.5" fill="#e06050" opacity="0.85" />
  <line x1="502.39" y1="64.91" x2="502.39" y2="69.61" stroke="#e06050" stroke-width="0.15" stroke-dasharray="0.4,0.3" />
  <circle cx="518.31" cy="75.01" r="0.5" fill="#e06050" opacity="0.85" />
  <line x1="518.31" y1="71.81" x2="518.31" y2="76.51" stroke="#e06050" stroke-width="0.15" stroke-dasharray="0.4,0.3" />
  <circle cx="694.88" cy="24.09" r="0.5" fill="#5a9fd4" opacity="0.85" />
  <line x1="694.88" y1="20.89" x2="694.88" y2="25.59" stroke="#5a9fd4" stroke-width="0.15" stroke-dasharray="0.4,0.3" />
  <circle cx="791.47" cy="26.65" r="0.5" fill="#5a9fd4" opacity="0.85" />
  <line x1="791.47" y1="23.45" x2="791.47" y2="28.15" stroke="#5a9fd4" stroke-width="0.15" stroke-dasharray="0.4,0.3" />
  <circle cx="51.86" cy="252.09" r="0.5" fill="#5a9fd4" opacity="0.85" />
  <line x1="51.86" y1="248.89" x2="51.86" y2="253.59" stroke="#5a9fd4" stroke-width="0.15" stroke-dasharray="0.4,0.3" />
  <circle cx="110.74" cy="277.99" r="0.5" fill="#5a9fd4" opacity="0.85" />
  <line x1="110.74" y1="274.79" x2="110.74" y2="279.49" stroke="#5a9fd4" stroke-width="0.15" stroke-dasharray="0.4,0.3" />
  <circle cx="357.95" cy="319.74" r="0.5" fill="#5a9fd4" opacity="0.85" />
  <line x1="357.95" y1="316.54" x2="357.95" y2="321.24" stroke="#5a9fd4" stroke-width="0.15" stroke-dasharray="0.4,0.3" />
  <circle cx="458.43" cy="320.77" r="0.5" fill="#5a9fd4" opacity="0.85" />
  <line x1="458.43" y1="317.57" x2="458.43" y2="322.27" stroke="#5a9fd4" stroke-width="0.15" stroke-dasharray="0.4,0.3" />
  <circle cx="646.55" cy="280.12" r="0.5" fill="#e0e0e0" opacity="0.85" />
  <line x1="646.55" y1="276.92" x2="646.55" y2="281.62" stroke="#e0e0e0" stroke-width="0.15" stroke-dasharray="0.4,0.3" />
  <circle cx="714.66" cy="274.68" r="0.5" fill="#e0e0e0" opacity="0.85" />
  <line x1="714.66" y1="271.48" x2="714.66" y2="276.18" stroke="#e0e0e0" stroke-width="0.15" stroke-dasharray="0.4,0.3" />
  <circle cx="124.33" cy="488.47" r="0.5" fill="#e0e0e0" opacity="0.85" />
  <line x1="124.33" y1="485.27" x2="124.33" y2="489.97" stroke="#e0e0e0" stroke-width="0.15" stroke-dasharray="0.4,0.3" />
  <circle cx="173.13" cy="499.58" r="0.5" fill="#e0e0e0" opacity="0.85" />
  <line x1="173.13" y1="496.38" x2="173.13" y2="501.08" stroke="#e0e0e0" stroke-width="0.15" stroke-dasharray="0.4,0.3" />
  <circle cx="401.50" cy="514.09" r="0.5" fill="#f0d040" opacity="0.85" />
  <line x1="401.50" y1="510.89" x2="401.50" y2="515.59" stroke="#f0d040" stroke-width="0.15" stroke-dasharray="0.4,0.3" />
  <circle cx="443.39" cy="525.32" r="0.5" fill="#f0d040" opacity="0.85" />
  <line x1="443.39" y1="522.12" x2="443.39" y2="526.82" stroke="#f0d040" stroke-width="0.15" stroke-dasharray="0.4,0.3" />
  <text x="149.7" y="122.5" text-anchor="middle" dominant-baseline="middle" font-family="monospace" font-size="3.5" font-weight="bold" fill="#e06050">P02</text>
  <text x="149.7" y="207.5" text-anchor="middle" font-family="monospace" font-size="2.5" fill="#e06050">279.4×163.9mm | L:213mm R:195mm</text>
  <text x="413.4" y="122.5" text-anchor="middle" dominant-baseline="middle" font-family="monospace" font-size="3.5" font-weight="bold" fill="#e06050">P02</text>
  <text x="413.4" y="180.1" text-anchor="middle" font-family="monospace" font-size="2.5" fill="#e06050">228.1×109.3mm | L:246mm R:253mm</text>
  <text x="688.6" y="122.5" text-anchor="middle" dominant-baseline="middle" font-family="monospace" font-size="3.5" font-weight="bold" fill="#5a9fd4">P03</text>
  <text x="688.6" y="237.0" text-anchor="middle" font-family="monospace" font-size="2.5" fill="#5a9fd4">302.3×223.0mm | L:64mm R:67mm</text>
  <text x="149.7" y="361.1" text-anchor="middle" dominant-baseline="middle" font-family="monospace" font-size="3.5" font-weight="bold" fill="#5a9fd4">P04</text>
  <text x="149.7" y="477.2" text-anchor="middle" font-family="monospace" font-size="2.5" fill="#5a9fd4">254.5×226.2mm | L:39mm R:65mm</text>
  <text x="413.4" y="361.1" text-anchor="middle" dominant-baseline="middle" font-family="monospace" font-size="3.5" font-weight="bold" fill="#5a9fd4">P05</text>
  <text x="413.4" y="406.0" text-anchor="middle" font-family="monospace" font-size="2.5" fill="#5a9fd4">215.8×83.7mm | L:30mm R:31mm</text>
  <text x="688.6" y="361.1" text-anchor="middle" dominant-baseline="middle" font-family="monospace" font-size="3.5" font-weight="bold" fill="#e0e0e0">P06</text>
  <text x="688.6" y="453.7" text-anchor="middle" font-family="monospace" font-size="2.5" fill="#e0e0e0">200.2×179.3mm | L:141mm R:136mm</text>
  <text x="149.7" y="569.7" text-anchor="middle" dominant-baseline="middle" font-family="monospace" font-size="3.5" font-weight="bold" fill="#e0e0e0">P07</text>
  <text x="149.7" y="654.1" text-anchor="middle" font-family="monospace" font-size="2.5" fill="#e0e0e0">123.5×162.9mm | L:139mm R:150mm</text>
  <text x="413.4" y="569.7" text-anchor="middle" dominant-baseline="middle" font-family="monospace" font-size="3.5" font-weight="bold" fill="#f0d040">P08</text>
  <text x="413.4" y="628.6" text-anchor="middle" font-family="monospace" font-size="2.5" fill="#f0d040">108.6×111.9mm | L:157mm R:168mm</text>
</svg>